<svg id="Capa_1" enable-background="new 0 0 512 512" height="512" viewBox="0 0 512 512" width="512" xmlns="http://www.w3.org/2000/svg"><g><path d="m278.752 179.627h-261.631v-164.785c0-8.197 6.645-14.842 14.842-14.842h231.947c8.197 0 14.842 6.645 14.842 14.842z" fill="#365e7d"/><path d="m263.91 0h-27.406c8.197 0 14.842 6.645 14.842 14.842v121.843c0 10.375-8.411 18.786-18.786 18.786h-215.439v24.155h261.631v-164.784c0-8.197-6.645-14.842-14.842-14.842z" fill="#2b4d66"/><path d="m289.941 213.789h-284.01c-3.276 0-5.931-2.656-5.931-5.931v-22.299c0-3.276 2.656-5.931 5.931-5.931h284.01c3.276 0 5.931 2.656 5.931 5.931v22.299c.001 3.275-2.655 5.931-5.931 5.931z" fill="#365e7d"/><path d="m289.941 179.627h-23.982c3.276 0 5.931 2.656 5.931 5.931v22.299c0 3.276-2.656 5.931-5.931 5.931h23.982c3.276 0 5.931-2.656 5.931-5.931v-22.299c.001-3.276-2.655-5.931-5.931-5.931z" fill="#2b4d66"/><path d="m48.026 143.132v-106.636c0-3.087 2.503-5.59 5.59-5.59h188.64c3.087 0 5.59 2.503 5.59 5.59v106.636c0 3.087-2.503 5.59-5.59 5.59h-188.64c-3.087 0-5.59-2.503-5.59-5.59z" fill="#f6f9f9"/><path d="m242.256 30.906h-22.378c3.087 0 5.59 2.503 5.59 5.59v106.636c0 3.087-2.503 5.59-5.59 5.59h22.378c3.087 0 5.59-2.503 5.59-5.59v-106.636c.001-3.087-2.502-5.59-5.59-5.59z" fill="#dfeaef"/><g><g><path d="m393.93 184.122c-4.268 0-7.726-3.459-7.726-7.726v-41.704h-50.391c-4.268 0-7.726-3.459-7.726-7.726 0-4.268 3.459-7.726 7.726-7.726h58.118c4.268 0 7.726 3.459 7.726 7.726v49.431c-.001 4.266-3.459 7.725-7.727 7.725z" fill="#2b4d66"/></g><g><path d="m393.93 195.871c-1.919 0-3.837-.71-5.329-2.132l-18.014-17.161c-3.09-2.944-3.208-7.834-.266-10.924 2.945-3.091 7.836-3.207 10.924-.266l12.685 12.085 12.685-12.085c3.089-2.942 7.979-2.825 10.924.266 2.943 3.09 2.824 7.98-.266 10.924l-18.014 17.161c-1.492 1.421-3.41 2.132-5.329 2.132z" fill="#2b4d66"/></g><g><g><path d="m176.188 392.761h-58.118c-4.267 0-7.726-3.459-7.726-7.726v-49.43c0-4.268 3.459-7.726 7.726-7.726s7.726 3.459 7.726 7.726v41.703h50.391c4.267 0 7.726 3.459 7.726 7.726s-3.458 7.727-7.725 7.727z" fill="#2b4d66"/></g><g><path d="m100.057 348.744c-2.04 0-4.076-.803-5.595-2.397-2.943-3.09-2.825-7.98.265-10.923l18.014-17.162c2.983-2.845 7.674-2.845 10.659 0l18.014 17.162c3.09 2.943 3.208 7.834.265 10.924-2.945 3.089-7.835 3.207-10.924.264l-12.684-12.085-12.685 12.085c-1.496 1.425-3.414 2.132-5.329 2.132z" fill="#2b4d66"/></g></g></g><path d="m494.879 477.838h-261.631v-164.785c0-8.197 6.645-14.842 14.842-14.842h231.947c8.197 0 14.842 6.645 14.842 14.842z" fill="#365e7d"/><path d="m480.037 298.211h-27.406c8.197 0 14.842 6.645 14.842 14.842v121.843c0 10.375-8.411 18.786-18.786 18.786h-215.439v24.155h261.631v-164.784c0-8.197-6.645-14.842-14.842-14.842z" fill="#2b4d66"/><path d="m506.069 512h-284.01c-3.276 0-5.931-2.656-5.931-5.931v-22.299c0-3.276 2.656-5.931 5.931-5.931h284.01c3.276 0 5.931 2.656 5.931 5.931v22.299c0 3.275-2.656 5.931-5.931 5.931z" fill="#365e7d"/><path d="m506.069 477.838h-23.983c3.276 0 5.931 2.656 5.931 5.931v22.299c0 3.276-2.656 5.931-5.931 5.931h23.983c3.276 0 5.931-2.656 5.931-5.931v-22.299c0-3.276-2.656-5.931-5.931-5.931z" fill="#2b4d66"/><path d="m264.153 441.343v-106.636c0-3.087 2.503-5.59 5.59-5.59h188.64c3.087 0 5.59 2.503 5.59 5.59v106.636c0 3.087-2.503 5.59-5.59 5.59h-188.64c-3.087 0-5.59-2.503-5.59-5.59z" fill="#f6f9f9"/><path d="m458.384 329.117h-22.378c3.087 0 5.59 2.503 5.59 5.59v106.636c0 3.087-2.503 5.59-5.59 5.59h22.378c3.087 0 5.59-2.503 5.59-5.59v-106.636c0-3.087-2.503-5.59-5.59-5.59z" fill="#dfeaef"/><g><path d="m176.995 103.486h-58.118c-4.267 0-7.726-3.459-7.726-7.726 0-4.268 3.459-7.726 7.726-7.726h58.118c4.267 0 7.726 3.459 7.726 7.726.001 4.267-3.458 7.726-7.726 7.726z" fill="#90d8f9"/></g></g></svg>